<svg version="1.1" id="Layer_1" xmlns="http://www.w3.org/2000/svg" xmlns:xlink="http://www.w3.org/1999/xlink" x="0px" y="0px"
	 width="100%" viewBox="0 0 400 400" enable-background="new 0 0 400 400" xml:space="preserve">
<path fill="#FFFFFF" opacity="1.000000" stroke="none" 
	d="
M217.000000,401.000000 
	C144.689117,401.000000 72.878220,401.000000 1.033666,401.000000 
	C1.033666,267.730774 1.033666,134.461548 1.033666,1.096156 
	C134.227509,1.096156 267.455109,1.096156 400.841370,1.096156 
	C400.841370,134.333191 400.841370,267.666565 400.841370,401.000000 
	C339.794952,401.000000 278.647461,401.000000 217.000000,401.000000 
M271.723999,369.196442 
	C300.043060,357.601624 323.877563,339.762024 342.823944,315.919617 
	C377.380798,272.432709 389.788116,222.906387 379.837616,168.293320 
	C371.743439,123.868690 349.461304,87.496582 313.834229,59.727261 
	C268.996277,24.778534 218.302002,13.596159 162.905777,25.276669 
	C118.313347,34.679157 82.635094,58.706120 55.664806,95.274239 
	C36.395535,121.400810 25.135818,150.781952 21.947897,183.273148 
	C19.566460,207.544708 21.484142,231.335526 28.602037,254.607605 
	C39.927151,291.635193 61.109394,321.976318 91.699516,345.691650 
	C120.294014,367.859833 152.894775,380.051880 188.793533,382.710999 
	C217.098709,384.807678 244.688797,380.570953 271.723999,369.196442 
z"/>
<path fill="#126EEC" opacity="1.000000" stroke="none" 
	d="
M271.384094,369.373657 
	C244.688797,380.570953 217.098709,384.807678 188.793533,382.710999 
	C152.894775,380.051880 120.294014,367.859833 91.699516,345.691650 
	C61.109394,321.976318 39.927151,291.635193 28.602037,254.607605 
	C21.484142,231.335526 19.566460,207.544708 21.947897,183.273148 
	C25.135818,150.781952 36.395535,121.400810 55.664806,95.274239 
	C82.635094,58.706120 118.313347,34.679157 162.905777,25.276669 
	C218.302002,13.596159 268.996277,24.778534 313.834229,59.727261 
	C349.461304,87.496582 371.743439,123.868690 379.837616,168.293320 
	C389.788116,222.906387 377.380798,272.432709 342.823944,315.919617 
	C323.877563,339.762024 300.043060,357.601624 271.384094,369.373657 
M177.017029,104.140671 
	C166.630524,106.167892 161.939178,109.993286 160.995178,117.205101 
	C159.554123,128.214005 166.086197,135.474060 178.409576,135.870102 
	C189.561005,136.228516 200.730545,136.025711 211.892120,136.063324 
	C215.495712,136.075455 219.099365,136.065231 222.771194,136.065231 
	C222.771194,170.993774 222.886536,205.287277 222.689209,239.578979 
	C222.640533,248.037231 217.962143,254.719238 211.042953,258.915741 
	C205.181458,262.470795 198.576096,265.401672 191.915207,266.910706 
	C178.159256,270.027100 165.388519,265.034485 152.636230,260.444489 
	C147.571655,258.621552 145.561401,256.248901 145.757568,250.500473 
	C146.136810,239.387085 145.987686,228.170227 144.861160,217.118195 
	C143.974289,208.417252 137.797775,204.011932 129.360809,204.000839 
	C120.905586,203.989700 115.301331,208.413803 113.498535,216.928665 
	C112.849510,219.994080 112.710747,223.210663 112.695793,226.359955 
	C112.619072,242.519821 112.756279,258.681335 112.575005,274.839569 
	C112.538757,278.070435 113.729317,279.660614 116.542374,280.761932 
	C127.220131,284.942352 137.715256,289.634399 148.536453,293.392944 
	C165.891479,299.420990 183.599442,302.284302 201.986038,297.985413 
	C236.718964,289.864624 256.156525,265.806488 256.188232,230.372070 
	C256.214661,200.883820 256.193695,171.395538 256.193695,141.907272 
	C256.193695,140.122635 256.193695,138.337997 256.193695,136.065048 
	C262.004791,136.065048 267.298157,136.208450 272.579803,136.021088 
	C277.051483,135.862442 281.622711,135.822021 285.950195,134.844925 
	C294.988708,132.804138 299.501404,124.680901 297.108643,115.727745 
	C295.108276,108.242874 289.027710,104.099327 278.882141,104.070000 
	C245.229706,103.972725 211.576721,104.063545 177.017029,104.140671 
z"/>
<path fill="#FEFEFF" opacity="1.000000" stroke="none" 
	d="
M177.470490,104.111443 
	C211.576721,104.063545 245.229706,103.972725 278.882141,104.070000 
	C289.027710,104.099327 295.108276,108.242874 297.108643,115.727745 
	C299.501404,124.680901 294.988708,132.804138 285.950195,134.844925 
	C281.622711,135.822021 277.051483,135.862442 272.579803,136.021088 
	C267.298157,136.208450 262.004791,136.065048 256.193695,136.065048 
	C256.193695,138.337997 256.193695,140.122635 256.193695,141.907272 
	C256.193695,171.395538 256.214661,200.883820 256.188232,230.372070 
	C256.156525,265.806488 236.718964,289.864624 201.986038,297.985413 
	C183.599442,302.284302 165.891479,299.420990 148.536453,293.392944 
	C137.715256,289.634399 127.220131,284.942352 116.542374,280.761932 
	C113.729317,279.660614 112.538757,278.070435 112.575005,274.839569 
	C112.756279,258.681335 112.619072,242.519821 112.695793,226.359955 
	C112.710747,223.210663 112.849510,219.994080 113.498535,216.928665 
	C115.301331,208.413803 120.905586,203.989700 129.360809,204.000839 
	C137.797775,204.011932 143.974289,208.417252 144.861160,217.118195 
	C145.987686,228.170227 146.136810,239.387085 145.757568,250.500473 
	C145.561401,256.248901 147.571655,258.621552 152.636230,260.444489 
	C165.388519,265.034485 178.159256,270.027100 191.915207,266.910706 
	C198.576096,265.401672 205.181458,262.470795 211.042953,258.915741 
	C217.962143,254.719238 222.640533,248.037231 222.689209,239.578979 
	C222.886536,205.287277 222.771194,170.993774 222.771194,136.065231 
	C219.099365,136.065231 215.495712,136.075455 211.892120,136.063324 
	C200.730545,136.025711 189.561005,136.228516 178.409576,135.870102 
	C166.086197,135.474060 159.554123,128.214005 160.995178,117.205101 
	C161.939178,109.993286 166.630524,106.167892 177.470490,104.111443 
z"/>
</svg>